<?xml version="1.0" encoding="UTF-8" standalone="no"?>
<svg
   height="18.843485"
   viewBox="0 0 19.572272 18.843485"
   width="19.572271"
   fill="#000000"
   version="1.1"
   id="svg6"
   sodipodi:docname="newsicon.svg"
   inkscape:version="1.1 (ce6663b3b7, 2021-05-25)"
   xmlns:inkscape="http://www.inkscape.org/namespaces/inkscape"
   xmlns:sodipodi="http://sodipodi.sourceforge.net/DTD/sodipodi-0.dtd"
   xmlns="http://www.w3.org/2000/svg"
   xmlns:svg="http://www.w3.org/2000/svg">
  <defs
     id="defs10" />
  <sodipodi:namedview
     id="namedview8"
     pagecolor="#ffffff"
     bordercolor="#666666"
     borderopacity="1.0"
     inkscape:pageshadow="2"
     inkscape:pageopacity="0.0"
     inkscape:pagecheckerboard="true"
     showgrid="false"
     inkscape:zoom="27.5"
     inkscape:cx="-1.9090909"
     inkscape:cy="8.2545455"
     inkscape:window-width="1920"
     inkscape:window-height="1015"
     inkscape:window-x="0"
     inkscape:window-y="0"
     inkscape:window-maximized="1"
     inkscape:current-layer="svg6" />
  <path
     d="m -2.747,-4.4971446 h 24 V 19.502855 h -24 z"
     fill="none"
     id="path2" />
  <path
     style="color:#000000;fill:#267eca;fill-opacity:1;stroke:#3576a4;stroke-width:0.506;stroke-miterlimit:4;stroke-dasharray:none;stroke-opacity:1"
     d="M 17.200796,0.25299999 H 2.3714746 c -1.1757534,0 -2.11847461,0.85940761 -2.11847461,1.90979481 V 13.728368 c 0,1.050388 0.94272121,1.909795 2.11847461,1.909795 h 4.2369491 l 3.1777113,2.864692 3.177712,-2.864692 h 4.236949 c 1.165161,0 2.118475,-0.859407 2.118475,-1.909795 V 2.1627948 c 0,-1.0503872 -0.953314,-1.90979481 -2.118475,-1.90979481 z"
     id="path4"
     sodipodi:nodetypes="ssssscccssss" />
  <path
     fill="currentColor"
     d="M 16.728625,2.7617034 H 5.1578087 c -0.5485108,0 -1.0162075,0.3517785 -1.1899009,0.8415134 H 2.8436441 c -0.348571,0 -0.6311351,0.2825647 -0.6311351,0.6311351 v 7.1528711 c 0,0.813322 0.6593262,1.472649 1.4726491,1.472649 H 16.728625 c 0.348571,0 0.631137,-0.282565 0.631137,-0.631135 V 3.3928385 c 0,-0.348571 -0.282566,-0.6311351 -0.631137,-0.6311351 z M 3.4747805,11.387223 V 4.8654866 h 0.4207559 v 6.5217364 c 0,0.115998 -0.094381,0.210376 -0.2103783,0.210376 -0.1159975,0 -0.2103776,-0.09437 -0.2103776,-0.210376 z M 16.097491,11.597599 H 5.1426085 c 0.00983,-0.06874 0.015196,-0.138927 0.015196,-0.210376 V 4.0239734 H 16.097483 Z M 6.7356466,8.4419234 H 10.31208 c 0.174274,0 0.315569,-0.141295 0.315569,-0.315568 v -2.524542 c 0,-0.174274 -0.141295,-0.3155681 -0.315569,-0.3155681 H 6.7356466 c -0.1742717,0 -0.3155679,0.1412941 -0.3155679,0.3155681 v 2.524542 c 0,0.174273 0.1412962,0.315568 0.3155679,0.315568 z M 7.471972,6.3381374 h 2.103785 v 1.051893 H 7.471972 Z M 6.4200787,10.019762 V 9.3886264 c 0,-0.174272 0.1412962,-0.315567 0.3155679,-0.315567 H 10.31208 c 0.174274,0 0.315569,0.141295 0.315569,0.315567 v 0.6311356 c 0,0.174273 -0.141295,0.315568 -0.315569,0.315568 H 6.7356466 c -0.1742717,0 -0.3155679,-0.141295 -0.3155679,-0.315568 z m 5.0490843,0 V 9.3886264 c 0,-0.174272 0.141295,-0.315567 0.315568,-0.315567 h 2.734921 c 0.174271,0 0.315567,0.141295 0.315567,0.315567 v 0.6311356 c 0,0.174273 -0.141296,0.315568 -0.315567,0.315568 h -2.734921 c -0.174273,0 -0.315568,-0.141295 -0.315568,-0.315568 z m 0,-3.7868116 v -0.631137 c 0,-0.174274 0.141295,-0.3155681 0.315568,-0.3155681 h 2.734921 c 0.174271,0 0.315567,0.1412941 0.315567,0.3155681 v 0.631137 c 0,0.174271 -0.141296,0.315566 -0.315567,0.315566 h -2.734921 c -0.174273,0 -0.315568,-0.141295 -0.315568,-0.315566 z m 0,1.893405 v -0.631135 c 0,-0.174274 0.141295,-0.315569 0.315568,-0.315569 h 2.734921 c 0.174271,0 0.315567,0.141295 0.315567,0.315569 v 0.631135 c 0,0.174273 -0.141296,0.315568 -0.315567,0.315568 h -2.734921 c -0.174273,0 -0.315568,-0.141295 -0.315568,-0.315568 z"
     id="path827"
     style="fill:#ffffff;fill-opacity:1;stroke-width:0.2;stroke:#3576a4;stroke-opacity:1;stroke-miterlimit:4;stroke-dasharray:none" />
</svg>
